<svg width="98" height="11" viewBox="0 0 98 11" fill="none" xmlns="http://www.w3.org/2000/svg">
<path d="M61.05 6.71019H64.2864V0.78072C64.2864 0.350262 63.9363 0.00195312 63.5037 0.00195312H61.3488H60.2541H56.1573H55.1649C54.7323 0.00195312 54.3822 0.350262 54.3822 0.78072V6.71019H56.0912L54.7736 8.03607C54.5226 8.28744 54.3822 8.62753 54.3822 8.98242V10.7963L56.1573 10.7897V6.71019H58.4922C58.8505 6.71019 59.1956 6.85149 59.4482 7.1045L63.1768 10.8143H65.1748L61.05 6.71019ZM56.1656 5.26767V1.74843H62.4899L62.4882 5.26767H56.1656Z" fill="#B2F600"/>
<path d="M75.9794 0.782185C75.9794 0.351727 75.6293 0.00341797 75.1967 0.00341797H67.8502H66.8578C66.4252 0.00341797 66.0751 0.351727 66.0751 0.782185V6.71166H67.7743L66.4747 7.99317C66.2188 8.24619 66.0735 8.58957 66.0735 8.94938V10.8158H67.8486V6.7248L67.8618 6.71166H67.8486H70.5154H73.0583H74.2026H74.201L74.2026 6.7133V10.8092L75.9777 10.8158V8.93624C75.9777 8.57643 75.8341 8.23304 75.5765 7.98003L74.2885 6.71001H75.9761V6.70673L75.9711 3.1037L75.9794 0.782185ZM74.2092 5.26749H67.8568V1.74825H74.2076V5.26749H74.2092Z" fill="#B2F600"/>
<path d="M98 6.70673L97.9951 3.1037L97.9984 0.782185C97.9984 0.351727 97.6483 0.00341797 97.2157 0.00341797H88.8769C88.4442 0.00341797 88.0942 0.351727 88.0942 0.782185V6.71166H89.7933L88.4938 7.99317C88.2378 8.24619 88.0925 8.58957 88.0925 8.94938V10.8174L89.8676 10.8109V6.72316L89.8808 6.71001H89.8676H92.5344H95.0773H96.2216H96.22L96.2216 6.71166V10.8141H97.9967V8.93623C97.9967 8.57642 97.8531 8.23304 97.5955 7.98003L96.3075 6.71001H97.9951V6.70673H98ZM96.2282 5.26749H89.8775V1.74825H96.2282V5.26749Z" fill="#B2F600"/>
<path d="M43.4822 1.71362H47.6351H49.0882C49.1642 1.71362 49.2022 1.80562 49.1493 1.85984L47.9604 3.05756C47.7111 3.30894 47.5707 3.64903 47.5707 4.00227L47.5674 10.814H49.3524V1.89599C49.3524 1.79576 49.435 1.71362 49.5357 1.71362H53.4376V0H43.4806V1.71362H43.4822Z" fill="#B2F600"/>
<path d="M82.2024 5.41358L87.6383 0.00328594H85.4686L80.812 4.6266C80.6436 4.79418 80.4141 4.88947 80.1747 4.88947H80.0921C79.8064 4.88947 79.5753 4.65946 79.5753 4.37522V0L77.7787 0.00164297V10.8074H79.5753V8.85724C79.5753 8.48264 79.4184 8.12612 79.1443 7.87146L77.8035 6.67374H79.7618C80.3546 6.67374 80.9243 6.90868 81.3454 7.32599L84.8527 10.8157H87.0323L82.204 6.01162C82.0356 5.84732 82.0356 5.57952 82.2024 5.41358Z" fill="#B2F600"/>
<path d="M4.42535 5.41358L9.86293 0.00328594H7.69319L3.03665 4.6266C2.86823 4.79418 2.6387 4.88947 2.39927 4.88947H2.3134C2.02774 4.88947 1.79656 4.65946 1.79656 4.37522V0L0 0.00164297V10.8074H1.79656V8.85724C1.79656 8.48264 1.63969 8.12612 1.36558 7.87146L0.0247678 6.67374H1.98315C2.57595 6.67374 3.14563 6.90868 3.5667 7.32599L7.07397 10.8157H9.25362L4.42535 6.01162C4.26023 5.84732 4.26023 5.57952 4.42535 5.41358Z" fill="#B2F600"/>
<path d="M42.5459 10.8141V9.0594C42.5459 8.70288 42.4039 8.3595 42.1496 8.10813L40.7444 6.70996V10.8141H42.5459Z" fill="#B2F600"/>
<path d="M42.546 0H40.7461V6.70988L42.546 9.2647V0Z" fill="#B2F600"/>
<path d="M36.6741 1.67756C37.1183 1.67756 37.4783 2.03572 37.4783 2.47768V8.84747C37.4783 8.99862 37.3561 9.1202 37.2042 9.1202H24.6827C24.5308 9.1202 24.4086 8.99862 24.4086 8.84747V4.14365C24.4086 3.68198 24.2187 3.23838 23.8819 2.91964L22.6154 1.67591V10.7862H37.4931C38.474 10.7862 39.2682 9.9959 39.2682 9.01998V1.77449C39.2682 0.798568 38.474 0.00830078 37.4931 0.00830078H22.6154V1.67591H24.407H36.6741V1.67756Z" fill="#B2F600"/>
<path d="M10.5597 10.8024H21.0914V0.0146484H19.3229V8.76838C19.3229 8.91953 19.2007 9.04111 19.0488 9.04111H12.6072C12.4553 9.04111 12.3331 8.91953 12.3331 8.76838V0.0146484H10.5646L10.5597 10.8024Z" fill="#B2F600"/>
</svg>
