<svg width="115" height="111" viewBox="0 0 115 111" fill="none" xmlns="http://www.w3.org/2000/svg">
<ellipse cx="57.5" cy="55.5" rx="57.5" ry="55.5" fill="#B2F600"/>
<path d="M36.0851 60.3176V49.0522L29 42L29.0082 53.8496C29.0082 55.2074 29.5431 56.5076 30.4977 57.4704L40.2818 67.3286C41.2446 68.2996 42.5613 68.851 43.9355 68.851H71.2144L64.1375 61.807H37.5745C36.7516 61.7988 36.0851 61.1322 36.0851 60.3176Z" fill="#25272A"/>
<path d="M70.7289 42.0082L43.0962 42L50.1401 49.0357L76.2341 49.0522C77.3285 49.0522 78.2172 49.9409 78.2172 51.0436V61.733L85.2859 68.8263V56.6146C85.2859 55.2568 84.7428 53.9484 83.7882 52.9856L74.3661 43.5224C73.4033 42.5513 72.0949 42.0082 70.7289 42.0082Z" fill="#25272A"/>
</svg>
