<svg width="330" height="139" viewBox="0 0 330 139" fill="none" xmlns="http://www.w3.org/2000/svg">
<path d="M113.478 45.1882V17.3972L96 0L96.0203 29.2323C96.0203 32.5818 97.3398 35.7892 99.6946 38.1643L123.832 62.4839C126.207 64.8794 129.455 66.2395 132.845 66.2395H200.14L182.682 48.8625H117.153C115.123 48.8422 113.478 47.1979 113.478 45.1882Z" fill="#B2F600"/>
<path d="M198.942 0.0203002L130.774 0L148.151 17.3567L212.523 17.3973C215.223 17.3973 217.416 19.5897 217.416 22.3099V48.6798L234.853 66.1786V36.0531C234.853 32.7036 233.514 29.4759 231.159 27.1007L207.915 3.75553C205.54 1.36011 202.312 0.0203002 198.942 0.0203002Z" fill="#B2F600"/>
<path d="M205.046 124.435H215.916V104.52C215.916 103.074 214.74 101.904 213.287 101.904H206.05H202.373H188.613H185.28C183.827 101.904 182.651 103.074 182.651 104.52V124.435H188.391L183.966 128.888C183.123 129.733 182.651 130.875 182.651 132.067V138.159L188.613 138.137V124.435H196.455C197.659 124.435 198.818 124.91 199.666 125.759L212.189 138.219H218.9L205.046 124.435ZM188.641 119.59V107.77H209.882L209.877 119.59H188.641Z" fill="#B2F600"/>
<path d="M255.188 104.525C255.188 103.08 254.013 101.91 252.56 101.91H227.885H224.552C223.099 101.91 221.924 103.08 221.924 104.525V124.441H227.63L223.266 128.745C222.406 129.595 221.918 130.748 221.918 131.956V138.225H227.88V124.485L227.924 124.441H227.88H236.837H245.378H249.221H249.215L249.221 124.446V138.203L255.183 138.225V131.912C255.183 130.704 254.7 129.55 253.835 128.701L249.509 124.435H255.177V124.424L255.161 112.323L255.188 104.525ZM249.243 119.59H227.908V107.77H249.238V119.59H249.243Z" fill="#B2F600"/>
<path d="M329.149 124.424L329.132 112.323L329.143 104.525C329.143 103.08 327.967 101.91 326.514 101.91H298.507C297.054 101.91 295.878 103.08 295.878 104.525V124.441H301.585L297.22 128.745C296.361 129.595 295.873 130.748 295.873 131.956V138.23L301.835 138.208V124.479L301.879 124.435H301.835H310.791H319.332H323.175H323.17L323.175 124.441V138.219H329.137V131.912C329.137 130.704 328.655 129.55 327.79 128.701L323.464 124.435H329.132V124.424H329.149ZM323.198 119.59H301.868V107.77H323.198V119.59Z" fill="#B2F600"/>
<path d="M146.042 107.654H159.99H164.87C165.125 107.654 165.253 107.963 165.076 108.145L161.082 112.168C160.245 113.012 159.774 114.154 159.774 115.341L159.762 138.219H165.758V108.266C165.758 107.93 166.035 107.654 166.373 107.654H179.478V101.898H146.036V107.654H146.042Z" fill="#B2F600"/>
<path d="M276.09 120.081L294.347 101.91H287.06L271.42 117.438C270.854 118.001 270.083 118.321 269.279 118.321H269.002C268.042 118.321 267.266 117.548 267.266 116.593V101.898L261.232 101.904V138.197H267.266V131.647C267.266 130.389 266.739 129.191 265.818 128.336L261.315 124.313H267.893C269.884 124.313 271.797 125.102 273.211 126.504L284.991 138.225H292.312L276.095 122.089C275.529 121.538 275.53 120.638 276.09 120.081Z" fill="#B2F600"/>
<path d="M14.8633 120.081L33.1262 101.909H25.8388L10.1991 117.438C9.63339 118 8.8625 118.321 8.05833 118.321H7.76993C6.81048 118.321 6.03404 117.548 6.03404 116.593V101.898L0 101.904V138.197H6.03404V131.647C6.03404 130.389 5.50717 129.191 4.58653 128.336L0.0831865 124.313H6.66074C8.65175 124.313 10.5651 125.102 11.9793 126.504L23.759 138.225H31.0797L14.8633 122.089C14.3087 121.538 14.3087 120.638 14.8633 120.081Z" fill="#B2F600"/>
<path d="M142.898 138.219V132.326C142.898 131.129 142.421 129.975 141.567 129.131L136.847 124.435V138.219H142.898Z" fill="#B2F600"/>
<path d="M142.898 101.899H136.853V124.435L142.898 133.016V101.899Z" fill="#B2F600"/>
<path d="M123.176 107.533C124.667 107.533 125.877 108.736 125.877 110.22V131.614C125.877 132.122 125.466 132.53 124.956 132.53H82.9006C82.3904 132.53 81.98 132.122 81.98 131.614V115.816C81.98 114.265 81.3422 112.775 80.2108 111.705L75.957 107.528V138.126H125.926C129.221 138.126 131.888 135.472 131.888 132.194V107.859C131.888 104.581 129.221 101.927 125.926 101.927H75.957V107.528H81.9744H123.176V107.533Z" fill="#B2F600"/>
<path d="M35.4668 138.18H70.8391V101.948H64.8994V131.349C64.8994 131.856 64.489 132.265 63.9788 132.265H42.3438C41.8336 132.265 41.4232 131.856 41.4232 131.349V101.948H35.4834L35.4668 138.18Z" fill="#B2F600"/>
</svg>
