<svg width="250" height="105" viewBox="0 0 250 105" fill="none" xmlns="http://www.w3.org/2000/svg">
<path d="M86.191 34.325V13.215L72.9155 0L72.9309 22.2049C72.9309 24.7492 73.9332 27.1855 75.7217 28.9897L94.0546 47.4629C95.8586 49.2824 98.3256 50.3156 100.9 50.3156H152.013L138.753 37.116H88.9818C87.4399 37.1006 86.191 35.8516 86.191 34.325Z" fill="#25272A"/>
<path d="M151.104 0.01542L99.3281 0L112.527 13.1841L161.419 13.215C163.47 13.215 165.135 14.8803 165.135 16.9466V36.9773L178.38 50.2693V27.386C178.38 24.8417 177.362 22.3899 175.574 20.5857L157.919 2.85271C156.115 1.03314 153.664 0.01542 151.104 0.01542Z" fill="#25272A"/>
<path d="M155.74 94.521H163.996V79.3935C163.996 78.2953 163.103 77.4067 162 77.4067H156.503H153.71H143.259H140.727C139.624 77.4067 138.73 78.2953 138.73 79.3935V94.521H143.09L139.729 97.9036C139.089 98.545 138.73 99.4126 138.73 100.318V104.946L143.259 104.929V94.521H149.215C150.129 94.521 151.01 94.8815 151.654 95.527L161.166 104.992H166.263L155.74 94.521ZM143.28 90.8408V81.8624H159.413L159.409 90.8408H143.28Z" fill="#25272A"/>
<path d="M193.825 79.3976C193.825 78.2994 192.932 77.4108 191.828 77.4108H173.087H170.556C169.452 77.4108 168.559 78.2994 168.559 79.3976V94.5252H172.893L169.578 97.7946C168.925 98.4401 168.555 99.3162 168.555 100.234V104.996H173.083V94.5587L173.117 94.5252H173.083H179.886H186.373H189.292H189.288L189.292 94.5294V104.979L193.821 104.996V100.201C193.821 99.2826 193.454 98.4066 192.797 97.7611L189.511 94.521H193.816V94.5126L193.804 85.3204L193.825 79.3976ZM189.309 90.8407H173.104V81.8623H189.305V90.8407H189.309Z" fill="#25272A"/>
<path d="M250 94.5126L249.987 85.3204L249.996 79.3976C249.996 78.2994 249.103 77.4108 247.999 77.4108H226.726C225.623 77.4108 224.73 78.2994 224.73 79.3976V94.5252H229.064L225.749 97.7946C225.096 98.4401 224.726 99.3162 224.726 100.234V105L229.254 104.983V94.5545L229.288 94.521H229.254H236.057H242.544H245.463H245.459L245.463 94.5252V104.992H249.991V100.201C249.991 99.2826 249.625 98.4066 248.968 97.7611L245.682 94.521H249.987V94.5126H250ZM245.48 90.8407H229.279V81.8623H245.48V90.8407Z" fill="#25272A"/>
<path d="M110.924 81.774H121.518H125.225C125.419 81.774 125.516 82.0088 125.381 82.1471L122.348 85.2028C121.712 85.8441 121.354 86.7118 121.354 87.6129L121.346 104.991H125.899V82.2393C125.899 81.9836 126.11 81.774 126.367 81.774H136.321V77.4022H110.92V81.774H110.924Z" fill="#25272A"/>
<path d="M209.7 91.2135L223.567 77.4106H218.032L206.153 89.2058C205.724 89.6333 205.138 89.8764 204.527 89.8764H204.317C203.588 89.8764 202.998 89.2896 202.998 88.5644V77.4022L198.415 77.4064V104.975H202.998V99.9991C202.998 99.0435 202.598 98.1339 201.899 97.4842L198.478 94.4285H203.474C204.986 94.4285 206.44 95.0279 207.514 96.0926L216.461 104.996H222.021L209.704 92.7393C209.275 92.3201 209.275 91.6369 209.7 91.2135Z" fill="#25272A"/>
<path d="M11.2892 91.2135L25.1605 77.4105H19.6255L7.74656 89.2057C7.3169 89.6333 6.73138 89.8764 6.12059 89.8764H5.90154C5.1728 89.8764 4.58306 89.2896 4.58306 88.5644V77.4022L0 77.4064V104.975H4.58306V99.9991C4.58306 99.0434 4.18289 98.1339 3.48363 97.4842L0.0631831 94.4285H5.05906C6.57131 94.4285 8.02458 95.0279 9.09873 96.0925L18.0458 104.996H23.6062L11.2892 92.7393C10.8679 92.3201 10.8679 91.6369 11.2892 91.2135Z" fill="#25272A"/>
<path d="M108.536 104.992V100.515C108.536 99.6054 108.173 98.7294 107.525 98.0881L103.94 94.521V104.992H108.536Z" fill="#25272A"/>
<path d="M108.536 77.4025H103.945V94.5211L108.536 101.039V77.4025Z" fill="#25272A"/>
<path d="M93.5566 81.6823C94.6897 81.6823 95.608 82.596 95.608 83.7236V99.9744C95.608 100.36 95.2963 100.67 94.9087 100.67H62.9663C62.5787 100.67 62.267 100.36 62.267 99.9744V87.9739C62.267 86.796 61.7826 85.6643 60.9233 84.8511L57.6924 81.6781V104.921H95.6459C98.1481 104.921 100.174 102.904 100.174 100.415V81.9296C100.174 79.4397 98.1481 77.4236 95.6459 77.4236H57.6924V81.6781H62.2628H93.5566V81.6823Z" fill="#25272A"/>
<path d="M26.938 104.962H53.8045V77.4396H49.2931V99.7725C49.2931 100.158 48.9814 100.468 48.5938 100.468H32.1613C31.7738 100.468 31.4621 100.158 31.4621 99.7725V77.4396H26.9506L26.938 104.962Z" fill="#25272A"/>
</svg>
